<mxfile host="Electron" agent="Mozilla/5.0 (Windows NT 10.0; Win64; x64) AppleWebKit/537.36 (KHTML, like Gecko) draw.io/25.0.2 Chrome/128.0.6613.186 Electron/32.2.5 Safari/537.36" version="25.0.2">
  <diagram name="PaginÄƒ-1" id="UdXFAn8l3Azh8CnSG8qg">
    <mxGraphModel dx="1050" dy="717" grid="0" gridSize="10" guides="1" tooltips="1" connect="1" arrows="1" fold="1" page="1" pageScale="1" pageWidth="1169" pageHeight="827" background="#ffffff" math="0" shadow="0">
      <root>
        <mxCell id="0" />
        <mxCell id="1" parent="0" />
        <mxCell id="ds1TRv3GfzQ3bbAJlEXv-1" value="" style="whiteSpace=wrap;html=1;aspect=fixed;strokeColor=#23445d;fillColor=#bac8d3;" vertex="1" parent="1">
          <mxGeometry x="608" y="293" width="346" height="346" as="geometry" />
        </mxCell>
        <mxCell id="ds1TRv3GfzQ3bbAJlEXv-2" value="FRDM-KL25Z Board" style="text;html=1;align=center;verticalAlign=middle;whiteSpace=wrap;rounded=0;fontColor=#000000;fontStyle=1" vertex="1" parent="1">
          <mxGeometry x="610" y="296" width="124" height="30" as="geometry" />
        </mxCell>
        <mxCell id="ds1TRv3GfzQ3bbAJlEXv-3" value="" style="rounded=0;whiteSpace=wrap;html=1;fillColor=#bac8d3;strokeColor=#131515;strokeWidth=2;" vertex="1" parent="1">
          <mxGeometry x="784" y="348" width="138" height="241" as="geometry" />
        </mxCell>
        <mxCell id="ds1TRv3GfzQ3bbAJlEXv-4" value="&lt;font color=&quot;#1d1d1d&quot;&gt;&lt;b&gt;RGB LED&lt;/b&gt;&lt;/font&gt;" style="text;html=1;align=center;verticalAlign=middle;whiteSpace=wrap;rounded=0;" vertex="1" parent="1">
          <mxGeometry x="823" y="312" width="60" height="30" as="geometry" />
        </mxCell>
        <mxCell id="ds1TRv3GfzQ3bbAJlEXv-5" value="" style="rounded=0;whiteSpace=wrap;html=1;strokeColor=#007FFF;fillColor=#0066CC;" vertex="1" parent="1">
          <mxGeometry x="809" y="515" width="83" height="44" as="geometry" />
        </mxCell>
        <mxCell id="ds1TRv3GfzQ3bbAJlEXv-6" value="" style="rounded=0;whiteSpace=wrap;html=1;fillColor=#00CC00;strokeColor=#00CC00;" vertex="1" parent="1">
          <mxGeometry x="809" y="444" width="83" height="44" as="geometry" />
        </mxCell>
        <mxCell id="ds1TRv3GfzQ3bbAJlEXv-7" value="" style="rounded=0;whiteSpace=wrap;html=1;strokeColor=#d50b0b;fillColor=#FF0000;" vertex="1" parent="1">
          <mxGeometry x="809" y="376" width="83" height="44" as="geometry" />
        </mxCell>
        <mxCell id="ds1TRv3GfzQ3bbAJlEXv-8" value="&lt;font color=&quot;#151414&quot;&gt;&lt;b&gt;RED LED&lt;/b&gt;&lt;/font&gt;" style="text;html=1;align=center;verticalAlign=middle;whiteSpace=wrap;rounded=0;" vertex="1" parent="1">
          <mxGeometry x="823" y="383" width="60" height="30" as="geometry" />
        </mxCell>
        <mxCell id="ds1TRv3GfzQ3bbAJlEXv-9" value="&lt;font color=&quot;#151414&quot;&gt;&lt;b&gt;GREEN LED&lt;/b&gt;&lt;/font&gt;" style="text;html=1;align=center;verticalAlign=middle;whiteSpace=wrap;rounded=0;" vertex="1" parent="1">
          <mxGeometry x="814.25" y="450" width="72.5" height="30" as="geometry" />
        </mxCell>
        <mxCell id="ds1TRv3GfzQ3bbAJlEXv-10" value="&lt;font color=&quot;#151414&quot;&gt;&lt;b&gt;BLUE LED&lt;/b&gt;&lt;/font&gt;" style="text;html=1;align=center;verticalAlign=middle;whiteSpace=wrap;rounded=0;" vertex="1" parent="1">
          <mxGeometry x="816.75" y="522" width="72.5" height="30" as="geometry" />
        </mxCell>
        <mxCell id="ds1TRv3GfzQ3bbAJlEXv-11" value="" style="rounded=0;whiteSpace=wrap;html=1;fillColor=#d0cee2;strokeColor=#56517e;" vertex="1" parent="1">
          <mxGeometry x="631" y="371" width="78" height="43" as="geometry" />
        </mxCell>
        <mxCell id="ds1TRv3GfzQ3bbAJlEXv-12" value="&lt;b&gt;&lt;font color=&quot;#1d0707&quot;&gt;UART MODULE&lt;/font&gt;&lt;/b&gt;" style="text;html=1;align=center;verticalAlign=middle;whiteSpace=wrap;rounded=0;" vertex="1" parent="1">
          <mxGeometry x="640" y="377.5" width="60" height="30" as="geometry" />
        </mxCell>
        <mxCell id="ds1TRv3GfzQ3bbAJlEXv-13" value="" style="rounded=0;whiteSpace=wrap;html=1;fillColor=#d0cee2;strokeColor=#56517e;" vertex="1" parent="1">
          <mxGeometry x="631" y="509" width="78" height="43" as="geometry" />
        </mxCell>
        <mxCell id="ds1TRv3GfzQ3bbAJlEXv-14" value="&lt;b&gt;&lt;font color=&quot;#1d0707&quot;&gt;PWN MODULE&lt;/font&gt;&lt;/b&gt;" style="text;html=1;align=center;verticalAlign=middle;whiteSpace=wrap;rounded=0;" vertex="1" parent="1">
          <mxGeometry x="640" y="515.5" width="60" height="30" as="geometry" />
        </mxCell>
        <mxCell id="ds1TRv3GfzQ3bbAJlEXv-15" value="" style="endArrow=classic;html=1;rounded=0;exitX=0.5;exitY=1;exitDx=0;exitDy=0;strokeColor=#1D0707;endSize=9;" edge="1" parent="1" source="ds1TRv3GfzQ3bbAJlEXv-11">
          <mxGeometry width="50" height="50" relative="1" as="geometry">
            <mxPoint x="510" y="493" as="sourcePoint" />
            <mxPoint x="670" y="507" as="targetPoint" />
          </mxGeometry>
        </mxCell>
        <mxCell id="ds1TRv3GfzQ3bbAJlEXv-16" value="&lt;font color=&quot;#000000&quot;&gt;&lt;b&gt;UART&lt;/b&gt;&lt;/font&gt;&lt;div&gt;&lt;font color=&quot;#000000&quot;&gt;&lt;b&gt;ISR&lt;/b&gt;&lt;/font&gt;&lt;/div&gt;" style="text;html=1;align=center;verticalAlign=middle;whiteSpace=wrap;rounded=0;" vertex="1" parent="1">
          <mxGeometry x="615" y="441" width="60" height="30" as="geometry" />
        </mxCell>
        <mxCell id="ds1TRv3GfzQ3bbAJlEXv-18" value="" style="endArrow=classic;html=1;rounded=0;exitX=1;exitY=0.5;exitDx=0;exitDy=0;strokeColor=#666666;endSize=9;entryX=0;entryY=0.5;entryDx=0;entryDy=0;" edge="1" parent="1" source="ds1TRv3GfzQ3bbAJlEXv-13" target="ds1TRv3GfzQ3bbAJlEXv-7">
          <mxGeometry width="50" height="50" relative="1" as="geometry">
            <mxPoint x="680" y="424" as="sourcePoint" />
            <mxPoint x="680" y="517" as="targetPoint" />
            <Array as="points" />
          </mxGeometry>
        </mxCell>
        <mxCell id="ds1TRv3GfzQ3bbAJlEXv-19" value="" style="endArrow=classic;html=1;rounded=0;exitX=1;exitY=0.5;exitDx=0;exitDy=0;strokeColor=#666666;endSize=9;entryX=0;entryY=0.5;entryDx=0;entryDy=0;" edge="1" parent="1" source="ds1TRv3GfzQ3bbAJlEXv-13" target="ds1TRv3GfzQ3bbAJlEXv-6">
          <mxGeometry width="50" height="50" relative="1" as="geometry">
            <mxPoint x="719" y="541" as="sourcePoint" />
            <mxPoint x="819" y="408" as="targetPoint" />
          </mxGeometry>
        </mxCell>
        <mxCell id="ds1TRv3GfzQ3bbAJlEXv-20" value="" style="endArrow=classic;html=1;rounded=0;exitX=1;exitY=0.5;exitDx=0;exitDy=0;strokeColor=#666666;endSize=9;entryX=0;entryY=0.5;entryDx=0;entryDy=0;" edge="1" parent="1" source="ds1TRv3GfzQ3bbAJlEXv-13" target="ds1TRv3GfzQ3bbAJlEXv-5">
          <mxGeometry width="50" height="50" relative="1" as="geometry">
            <mxPoint x="719" y="541" as="sourcePoint" />
            <mxPoint x="819" y="476" as="targetPoint" />
            <Array as="points" />
          </mxGeometry>
        </mxCell>
        <mxCell id="ds1TRv3GfzQ3bbAJlEXv-21" value="" style="outlineConnect=0;dashed=0;verticalLabelPosition=bottom;verticalAlign=top;align=center;html=1;shape=mxgraph.aws3.user;" vertex="1" parent="1">
          <mxGeometry x="225" y="420" width="45" height="63" as="geometry" />
        </mxCell>
        <mxCell id="ds1TRv3GfzQ3bbAJlEXv-22" value="&lt;b&gt;&lt;font color=&quot;#000000&quot;&gt;USER&lt;/font&gt;&lt;/b&gt;" style="text;html=1;align=center;verticalAlign=middle;whiteSpace=wrap;rounded=0;" vertex="1" parent="1">
          <mxGeometry x="217.5" y="487.5" width="60" height="30" as="geometry" />
        </mxCell>
        <mxCell id="ds1TRv3GfzQ3bbAJlEXv-23" value="" style="rounded=0;whiteSpace=wrap;html=1;fillColor=#d0cee2;strokeColor=#56517e;" vertex="1" parent="1">
          <mxGeometry x="367" y="327" width="152" height="267" as="geometry" />
        </mxCell>
        <mxCell id="ds1TRv3GfzQ3bbAJlEXv-24" value="&lt;b&gt;&lt;font color=&quot;#000000&quot;&gt;Python GUI&lt;/font&gt;&lt;/b&gt;" style="text;html=1;align=center;verticalAlign=middle;whiteSpace=wrap;rounded=0;" vertex="1" parent="1">
          <mxGeometry x="398" y="420" width="90" height="30" as="geometry" />
        </mxCell>
        <mxCell id="ds1TRv3GfzQ3bbAJlEXv-25" value="Text" style="text;html=1;align=center;verticalAlign=middle;whiteSpace=wrap;rounded=0;" vertex="1" parent="1">
          <mxGeometry x="406" y="529" width="60" height="30" as="geometry" />
        </mxCell>
        <mxCell id="ds1TRv3GfzQ3bbAJlEXv-26" value="&lt;b&gt;&lt;font color=&quot;#000000&quot;&gt;Invert LED Sequence&lt;/font&gt;&lt;/b&gt;" style="rounded=0;whiteSpace=wrap;html=1;fillColor=#f5f5f5;strokeColor=#666666;gradientColor=#b3b3b3;" vertex="1" parent="1">
          <mxGeometry x="383" y="522" width="120" height="47" as="geometry" />
        </mxCell>
        <mxCell id="ds1TRv3GfzQ3bbAJlEXv-28" value="" style="endArrow=classic;html=1;rounded=0;exitX=1;exitY=0.68;exitDx=0;exitDy=0;strokeColor=#1D0707;endSize=9;exitPerimeter=0;entryX=0;entryY=0.5;entryDx=0;entryDy=0;" edge="1" parent="1" source="ds1TRv3GfzQ3bbAJlEXv-21" target="ds1TRv3GfzQ3bbAJlEXv-23">
          <mxGeometry width="50" height="50" relative="1" as="geometry">
            <mxPoint x="719" y="541" as="sourcePoint" />
            <mxPoint x="364" y="470" as="targetPoint" />
          </mxGeometry>
        </mxCell>
        <mxCell id="ds1TRv3GfzQ3bbAJlEXv-29" value="" style="endArrow=classic;html=1;rounded=0;exitX=1;exitY=0.25;exitDx=0;exitDy=0;strokeColor=#1D0707;endSize=9;entryX=0;entryY=0.5;entryDx=0;entryDy=0;" edge="1" parent="1" source="ds1TRv3GfzQ3bbAJlEXv-23" target="ds1TRv3GfzQ3bbAJlEXv-11">
          <mxGeometry width="50" height="50" relative="1" as="geometry">
            <mxPoint x="280" y="473" as="sourcePoint" />
            <mxPoint x="377" y="471" as="targetPoint" />
          </mxGeometry>
        </mxCell>
      </root>
    </mxGraphModel>
  </diagram>
</mxfile>
